<svg width="25" height="24" viewBox="0 0 25 24" fill="none" xmlns="http://www.w3.org/2000/svg">
<g id="vuesax/linear/profile">
<g id="profile">
<path id="Vector" d="M12.4934 10.87C12.3934 10.86 12.2734 10.86 12.1634 10.87C9.78343 10.79 7.89343 8.84 7.89343 6.44C7.89343 3.99 9.87343 2 12.3334 2C14.7834 2 16.7734 3.99 16.7734 6.44C16.7634 8.84 14.8734 10.79 12.4934 10.87Z" stroke="#8696BB" stroke-width="1.5" stroke-linecap="round" stroke-linejoin="round"/>
<path id="Vector_2" d="M7.49334 14.56C5.07334 16.18 5.07334 18.82 7.49334 20.43C10.2433 22.27 14.7533 22.27 17.5033 20.43C19.9233 18.81 19.9233 16.17 17.5033 14.56C14.7633 12.73 10.2533 12.73 7.49334 14.56Z" stroke="#8696BB" stroke-width="1.5" stroke-linecap="round" stroke-linejoin="round"/>
</g>
</g>
</svg>
